<svg xmlns="http://www.w3.org/2000/svg" viewBox="0 0 1960.59 1706.65"><defs><style>.cls-1{fill:#232147;}.cls-2,.cls-4,.cls-5{fill:none;}.cls-2,.cls-3,.cls-4,.cls-5,.cls-6{stroke:#f4a9cb;stroke-miterlimit:10;}.cls-2,.cls-3,.cls-6{stroke-width:4px;}.cls-3,.cls-6{fill:#f4a9cb;}.cls-4{stroke-width:7px;}.cls-5{stroke-width:6px;}.cls-6{font-size:241.25px;font-family:OstrichSans-Medium, Ostrich Sans;font-weight:500;}</style></defs><g id="Lag_2" data-name="Lag 2"><g id="Layer_1" data-name="Layer 1"><rect class="cls-1" width="1891.67" height="1272.13"/><path class="cls-2" d="M1218.9,219c-16.92,22.92-43.47,49.5-76,74.6s-64.88,44.05-91.34,54.64a107.86,107.86,0,0,1-34.72-57.93c-.23-1.05-.45-2.1-.64-3.15a107.89,107.89,0,0,1,152.51-117.79c1,.47,1.94.94,2.88,1.43A108.32,108.32,0,0,1,1218.9,219Z"/><path class="cls-2" d="M1230,266.62a107.89,107.89,0,0,1-154.48,97.27c25.8-10.83,54.77-27.83,83.27-49.84s52.25-45.73,69.25-68A106.72,106.72,0,0,1,1230,266.62Z"/><path class="cls-3" d="M1228,246.1c-17,22.22-40.75,45.94-69.25,68s-57.47,39-83.27,49.84c-39.06,16.41-70.9,18.7-83.09,2.93s-1.91-46,23.85-79.68c.19,1.05.41,2.1.64,3.15-21.38,27-30.61,49.81-22.12,60.79,7.8,10.1,29,8.25,56.84-2.86,26.46-10.59,58.87-29.56,91.34-54.64s59-51.68,76-74.6c17.78-24.09,24.91-44.15,17.11-54.25-8.49-11-32.9-7.84-64.38,6.05-.94-.49-1.91-1-2.88-1.43,39.06-16.41,70.92-18.7,83.1-2.93S1253.76,212.44,1228,246.1Z"/><path class="cls-2" d="M480.34,920c-.07.7-.17,1.4-.29,2.11-1.87,10.43-11.85,20.23-31,27.51l-1.89.69C425.51,958.1,395,963,361.1,963s-64.49-4.88-86.17-12.7h0l-1.88-.69-1.77-.69c-18-7.2-27.83-16.62-29.12-26.79a13.27,13.27,0,0,1-.1-2.18c.67-2.51,1.43-5,2.26-7.41,5.58-16.37,13.52-31.63,26-43.64a12.88,12.88,0,0,0-1.81,6.44c0,6,4.63,11.66,12.71,16.51,16.08,9.65,45.82,16.13,79.84,16.13s63.83-6.49,79.89-16.17c8.05-4.84,12.66-10.46,12.66-16.47a13.38,13.38,0,0,0-2.46-7.5c10.65,11.31,20,24.64,25.8,39.35C478.54,911.31,479.15,915.6,480.34,920Z"/><path class="cls-3" d="M484.64,952.39a123.9,123.9,0,0,1-5,34.8c-4.6,5-12,9.66-20.71,13.6l-.07,0c-1,.44-2,.88-3,1.31l-1.58.65h0c-22.06,8.87-55.66,14.54-93.3,14.54-37.91,0-71.72-5.75-93.77-14.74-.52-.21-1-.42-1.54-.64-9.49-4-17.63-8.56-22.66-13.55a120.9,120.9,0,0,1-3.76-16.32,122.79,122.79,0,0,1-1.57-19.68c0-11.24.8-22.39,4.34-32.48a13.27,13.27,0,0,0,.1,2.18c1.23,10.07,11,19.61,29.12,26.79l1.77.69,1.88.69h0c21.68,7.82,52.26,12.7,86.17,12.7s64.41-4.86,86.08-12.67l1.89-.69c19.25-7.27,28.85-16.72,31-27.51.12-.71.22-1.41.29-2.11A123.64,123.64,0,0,1,484.64,952.39Z"/><path class="cls-3" d="M455.15,1032.46a123.47,123.47,0,0,1-184.3,4.1c17.07,13.4,51.27,22.55,89.84,22.55C403.08,1059.11,440.25,1048.06,455.15,1032.46Z"/><path class="cls-2" d="M479.67,987.19a123.18,123.18,0,0,1-21.27,41.31l0,0c-1,1.32-2.11,2.63-3.21,3.91-14.9,15.6-52.07,26.65-94.46,26.65-38.57,0-72.77-9.15-89.84-22.55l0,0A124.09,124.09,0,0,1,243,988.39c5,5,13.17,9.57,22.66,13.55.5.22,1,.43,1.54.64,22.05,9,55.86,14.74,93.77,14.74,37.64,0,71.24-5.67,93.3-14.54h0l1.58-.65c1-.43,2-.87,3-1.31l.07,0C467.65,996.85,475.07,992.16,479.67,987.19Z"/><path class="cls-2" d="M402.33,844.33a6.12,6.12,0,0,1-.25,1.69c-2.25,7.71-19.7,13.71-40.9,13.71s-38.73-6-40.92-13.76a5.7,5.7,0,0,1-.23-1.64c0-8,16.22-14.55,37-15.33.68,0,1.35,0,2,0l2.11,0,2.11,0c1.37,0,2.7.07,4,.14h.05l1.22.09c.82.05,1.65.12,2.45.2.63,0,1.24.11,1.85.18,1.22.12,2.41.29,3.57.46l1.73.28,1.69.31c1.11.2,2.19.43,3.23.69l1.56.38c1,.26,2,.54,2.95.85.47.14.93.29,1.39.46s.9.31,1.33.48q1.65.6,3.09,1.29l1.11.55c.37.19.72.39,1.06.58l.4.23a19,19,0,0,1,1.93,1.28q.44.32.81.63c.26.21.5.43.73.65l.33.33c.12.11.22.22.32.33a10.07,10.07,0,0,1,.74.9c.09.11.17.24.25.35a7.7,7.7,0,0,1,.68,1.25,6,6,0,0,1,.23.59c0,.12.08.25.11.37s.06.25.08.38A5.54,5.54,0,0,1,402.33,844.33Z"/><path class="cls-3" d="M453.56,875.3c0,6-4.61,11.63-12.66,16.47-16.06,9.68-45.83,16.17-79.89,16.17s-63.76-6.48-79.84-16.13c-8.08-4.85-12.71-10.49-12.71-16.51a12.88,12.88,0,0,1,1.81-6.44,125.19,125.19,0,0,1,9.15-9,122.81,122.81,0,0,1,73.83-30.67C334.3,830.6,320,836.84,320,844.33a5.7,5.7,0,0,0,.23,1.64c2.19,7.74,19.67,13.76,40.92,13.76s38.65-6,40.9-13.71a6.12,6.12,0,0,0,.25-1.69,5.54,5.54,0,0,0-.12-1.15c0-.13,0-.25-.08-.38s-.07-.25-.11-.37a6,6,0,0,0-.23-.59,7.7,7.7,0,0,0-.68-1.25c-.08-.11-.16-.24-.25-.35a10.07,10.07,0,0,0-.74-.9,3.31,3.31,0,0,0-.32-.33c-.1-.12-.22-.22-.33-.33s-.47-.44-.73-.65-.52-.43-.81-.63a19,19,0,0,0-1.93-1.28,2.73,2.73,0,0,0-.4-.23c-.34-.2-.69-.4-1.06-.58l-1.11-.55q-1.44-.69-3.09-1.29c-.43-.17-.88-.34-1.33-.48s-.92-.32-1.39-.46c-.94-.31-1.93-.59-2.95-.85-.51-.13-1-.27-1.56-.38-1-.26-2.12-.49-3.23-.69-.56-.12-1.12-.21-1.69-.31s-1.15-.19-1.73-.28c-1.16-.17-2.35-.34-3.57-.46-.61-.08-1.22-.13-1.85-.18-.8-.08-1.63-.15-2.45-.2l-1.22-.09a122.92,122.92,0,0,1,76.72,31.81q3.65,3.32,7,6.9A13.38,13.38,0,0,1,453.56,875.3Z"/><polygon class="cls-3" points="1651.45 447.82 1654.8 468.4 1671.7 480.62 1653.16 490.17 1646.77 510.02 1631.95 495.33 1611.1 495.38 1620.49 476.76 1614 456.94 1634.61 460.12 1651.45 447.82"/><path class="cls-4" d="M1320.25,927.25a128.58,128.58,0,0,1-235.89,70.82,128.59,128.59,0,0,0,164-186.27A128.58,128.58,0,0,1,1320.25,927.25Z"/><path class="cls-5" d="M836.91,690.71a11.45,11.45,0,0,0,4,9.91"/><path class="cls-5" d="M860.51,689.77a22.91,22.91,0,0,0-8-19.84,22.59,22.59,0,0,0-5.8-3.56"/><path class="cls-5" d="M846.71,666.37a34.26,34.26,0,0,0-45,18.13"/><path class="cls-5" d="M832,759.49a91.37,91.37,0,0,0,120-48.37"/><path class="cls-5" d="M836.91,690.71a11.45,11.45,0,0,0,4,9.91"/><path class="cls-5" d="M847.1,703.26a11.46,11.46,0,0,0,9.92-4"/><path class="cls-5" d="M797.45,701a57.3,57.3,0,0,0,20,49.6"/><path class="cls-5" d="M860.51,689.77a22.91,22.91,0,0,0-8-19.84,22.59,22.59,0,0,0-5.8-3.56,34.26,34.26,0,0,0-45,18.13,57.13,57.13,0,0,0,30.23,75,91.37,91.37,0,0,0,120-48.37,148.5,148.5,0,0,0-78.6-195,239.92,239.92,0,0,0-315,127M847.1,703.26a11.46,11.46,0,0,0,9.92-4m-20.11-8.55a11.45,11.45,0,0,0,4,9.91"/><path class="cls-5" d="M858.8,696.36a22.83,22.83,0,0,0,1.71-6.59"/><path class="cls-5" d="M858.8,696.36a11.35,11.35,0,0,1-1.78,2.9"/><path class="cls-5" d="M847.1,703.26a11.66,11.66,0,0,1-3.3-.86,11.08,11.08,0,0,1-2.9-1.78"/><path class="cls-5" d="M1957.61,1706.33c-.22-2.06-.42-4.13-.57-6.19Q1957.28,1703.25,1957.61,1706.33Z"/><path class="cls-5" d="M1957.61,1706.33c-.22-2.06-.42-4.13-.57-6.19Q1957.28,1703.25,1957.61,1706.33Z"/><polygon class="cls-5" points="585.69 689.63 556.7 681.57 536.89 704.22 535.6 674.15 507.93 662.31 536.13 651.79 538.85 621.82 557.56 645.38 586.9 638.71 570.28 663.79 585.69 689.63"/><polygon class="cls-5" points="639.01 602.75 632.62 601.7 630.77 607.91 629.79 601.5 623.31 601.66 629.1 598.76 626.95 592.64 631.5 597.25 636.65 593.31 633.68 599.07 639.01 602.75"/><polygon class="cls-5" points="636.86 510.8 633.83 506.4 629.08 508.85 632.33 504.61 628.53 500.85 633.57 502.63 635.96 497.86 635.83 503.2 641.11 504 635.99 505.53 636.86 510.8"/><polygon class="cls-5" points="762.5 531.79 763.8 533.67 765.82 532.63 764.44 534.44 766.06 536.04 763.91 535.28 762.88 537.32 762.94 535.04 760.68 534.7 762.87 534.05 762.5 531.79"/><polygon class="cls-5" points="918.17 594.75 918.31 593.99 917.57 593.76 918.34 593.65 918.33 592.88 918.67 593.58 919.4 593.34 918.84 593.87 919.3 594.49 918.62 594.12 918.17 594.75"/><polygon class="cls-5" points="870.51 487.14 869.93 485.8 868.53 486.2 869.63 485.24 868.81 484.04 870.06 484.78 870.96 483.63 870.64 485.05 872.01 485.55 870.56 485.68 870.51 487.14"/><polygon class="cls-4" points="1601.15 659.12 1548.98 620.06 1503.66 666.89 1524.69 605.21 1466.15 576.58 1531.31 577.51 1540.45 512.99 1559.69 575.25 1623.89 564 1570.62 601.55 1601.15 659.12"/><polygon class="cls-4" points="1499.24 768.01 1502.95 751.32 1486.87 745.54 1503.88 743.91 1504.41 726.83 1511.22 742.51 1527.63 737.73 1514.82 749.05 1524.43 763.18 1509.71 754.5 1499.24 768.01"/><text class="cls-6" transform="translate(270.85 365.56)">DS</text></g></g></svg>