<svg id="Lag_1" data-name="Lag 1" xmlns="http://www.w3.org/2000/svg" viewBox="0 0 374.98 293.98"><defs><style>.cls-1{fill:#9fbce4;}.cls-2{fill:#68a0d6;}.cls-3{fill:#d1dfed;}.cls-4{fill:none;stroke:#fff;stroke-miterlimit:10;stroke-width:4.21px;}</style></defs><path class="cls-1" d="M404.48,420.5A147,147,0,1,1,129.1,348.88c.86-1.55,1.77-3.09,2.68-4.6.39-.64.77-1.25,1.16-1.87a146.86,146.86,0,0,1,116.14-68.66c2.79-.15,5.59-.24,8.42-.24A147,147,0,0,1,404.48,420.5Z" transform="translate(-110.51 -273.51)"/><path class="cls-2" d="M354.29,531.11A147,147,0,0,1,129.1,348.88c.86-1.55,1.77-3.09,2.68-4.6.39-.64.77-1.25,1.16-1.87a146.86,146.86,0,0,1,116.14-68.66C294,293.14,256.35,285,242.36,285c-2.85,0-4.72.34-4.72,1.32A17.65,17.65,0,0,0,255.29,304h-.61c7.23,0,1.41,16,6.81,19.63,2.75,1.83,7.09-.43,10.85-2,17.17-7.09,36.53-3.8,37-1.56.4,1.85-43.52,31.35-54.68,19.21s-79.72-26.21-63.91,0-17.65,7.9-17.65,17.65a17.66,17.66,0,0,0,17.65,17.66s5.28,7.8,9.76,6.61c2.48-.65,2.28-4.13,4.55-6.61,6.29-6.88,47.38-2.79,33.24,4.44s29.84,17.38,30.77,19.24c.09.16.43.51.34.89-.29,1.32-4.88,1.33-6.43,1.33-23.78,0-40.27-8.26-40.27-8.26-3.6-1.81-6.22-3.33-8.31-2.33-5.7,2.74-1.85,20-9.34,20h-6.49a17.65,17.65,0,0,0-17.65,17.65c0,9.75,32.05-7,17.65,17.65s14.3,0,14.3,0c6.51-11.54,10.28-12.45,12.1-12.11,6.59,1.24,11,19.08,7.93,31.17-.63,2.45-1.3,4.83-3.29,6.64-5.32,4.84-14.54,1.65-15.63,1.25-2,13.15-5.86,17.32-9.33,18.46-6.13,2-11.67-5.18-23.12-3.45-1.34.2-7.6,1.14-8.12,3.85-.74,3.83,10.35,8.77,12.58,9.75,5.28.13,10.54.26,15.82.41q38-9.45,39.56-5.28,1.38,3.69-26.37,18.26c.6,10,2.57,12.58,4.3,13,6.1,1.58,14.47-20.48,25.65-20.41a6.27,6.27,0,0,1,3.83,1.54c11.82,9.19,42,8.88,67.26-.62,13.69-5.15,20.35-11.29,22.82-8.82,2.72,2.71-2.86,13.76-8.83,20.74s-13.67,11.59-22.1,14.8c12.54,3.79,22.11,8.87,33.36,4.17C348.19,535.71,353.38,530.18,354.29,531.11Z" transform="translate(-110.51 -273.51)"/><path class="cls-3" d="M483.38,373.73v88.49a21.23,21.23,0,0,1-21.23,21.23H308.47a21.24,21.24,0,0,1-21.24-21.23V373.73c0-.56,0-1.12.07-1.68a21.23,21.23,0,0,1,21.17-19.55H462.15a21.23,21.23,0,0,1,21.17,19.55Q483.38,372.89,483.38,373.73Z" transform="translate(-110.51 -273.51)"/><rect class="cls-1" x="294.97" y="118.64" width="62.09" height="7.53" rx="1.93"/><rect class="cls-1" x="294.97" y="135.66" width="62.09" height="7.53" rx="1.93"/><rect class="cls-1" x="294.97" y="151.91" width="62.09" height="7.53" rx="1.93"/><rect class="cls-1" x="294.97" y="168.16" width="62.09" height="7.53" rx="1.93"/><rect class="cls-1" x="193.64" y="118.64" width="74.59" height="57.37" rx="14.2"/><polygon class="cls-3" points="232.51 147.98 222.7 144.41 214.2 150.46 214.57 140.03 206.19 133.82 216.22 130.94 219.53 121.05 225.37 129.7 235.8 129.8 229.38 138.02 232.51 147.98"/><polygon class="cls-3" points="229.56 173.61 226.54 169.25 221.24 169.26 224.46 165.05 222.81 160.01 227.81 161.77 232.09 158.64 231.97 163.94 236.26 167.05 231.18 168.57 229.56 173.61"/><polygon class="cls-3" points="248.21 157.39 244.85 152.53 238.95 152.54 242.53 147.85 240.7 142.24 246.27 144.19 251.04 140.72 250.9 146.62 255.68 150.08 250.02 151.77 248.21 157.39"/><rect class="cls-1" x="255.62" y="187.43" width="45.9" height="12.19" rx="3.13"/><path class="cls-1" d="M483.38,373.73v1.38H287.23v-1.38c0-.56,0-1.12.07-1.68a21.23,21.23,0,0,1,21.17-19.55H462.15a21.23,21.23,0,0,1,21.17,19.55Q483.38,372.89,483.38,373.73Z" transform="translate(-110.51 -273.51)"/><path class="cls-4" d="M483.38,375.37v88.48a21.22,21.22,0,0,1-21.23,21.23H308.47a21.23,21.23,0,0,1-21.24-21.23V375.37c0-.57,0-1.13.07-1.68a21.23,21.23,0,0,1,21.17-19.56H462.15a21.23,21.23,0,0,1,21.17,19.56Q483.38,374.52,483.38,375.37Z" transform="translate(-110.51 -273.51)"/></svg>