<svg xmlns="http://www.w3.org/2000/svg" viewBox="0 0 204 204"><defs><style>.cls-1,.cls-2,.cls-4{fill:none;}.cls-1,.cls-2,.cls-3,.cls-4{stroke:#fff;}.cls-1,.cls-3,.cls-4{stroke-miterlimit:10;}.cls-1,.cls-2,.cls-3{stroke-width:2.8px;}.cls-2{stroke-linejoin:round;}.cls-3{fill:#fff;}.cls-4{stroke-width:4px;}</style></defs><g id="Lag_2" data-name="Lag 2"><g id="Bæredygtighed"><path class="cls-1" d="M117.9,175.45l-32.18-.2L78,135.5h48Q122,155.47,117.9,175.45Z"/><path class="cls-1" d="M130.78,135.5H73.22l3.42-10.29h51Z"/><path class="cls-1" d="M103.3,124c-3-2-.48-12.86,4.65-20.44,7.11-10.51,20.43-16.51,23.22-13.7s-5.46,15.19-6.5,16.72C118.13,116.23,106.88,126.37,103.3,124Z"/><path class="cls-1" d="M100.7,124c3-2,.48-12.86-4.65-20.44-7.11-10.51-20.43-16.51-23.22-13.7s5.46,15.19,6.5,16.72C85.87,116.23,97.12,126.37,100.7,124Z"/><line class="cls-2" x1="102" y1="124.4" x2="102" y2="67.98"/><ellipse class="cls-1" cx="101.98" cy="42.13" rx="6.34" ry="13.14"/><ellipse class="cls-1" cx="116.83" cy="55.26" rx="13.14" ry="6.34" transform="translate(-10.54 33.34) rotate(-15.55)"/><ellipse class="cls-1" cx="112.26" cy="73.05" rx="6.34" ry="13.14" transform="translate(-20.41 91.46) rotate(-40.95)"/><ellipse class="cls-1" cx="87.17" cy="55.34" rx="6.34" ry="13.14" transform="translate(10.49 124.49) rotate(-74.45)"/><ellipse class="cls-1" cx="91.74" cy="73.13" rx="13.14" ry="6.34" transform="translate(-23.62 94.49) rotate(-49.05)"/><circle class="cls-3" cx="101.98" cy="58.81" r="5.96"/></g><g id="Kreativitet"><circle class="cls-4" cx="102" cy="102" r="100"/></g></g></svg>