<svg xmlns="http://www.w3.org/2000/svg" viewBox="0 0 204 204"><defs><style>.cls-1,.cls-2,.cls-7{fill:none;}.cls-1,.cls-2,.cls-3,.cls-4,.cls-5,.cls-6,.cls-7{stroke:#fff;stroke-miterlimit:10;}.cls-1{stroke-width:3.49px;}.cls-2,.cls-3{stroke-width:3.19px;}.cls-3,.cls-4,.cls-5,.cls-6{fill:#fff;}.cls-4{stroke-width:2.73px;}.cls-5{stroke-width:2.21px;}.cls-6{stroke-width:1.73px;}.cls-7{stroke-width:4px;}</style></defs><g id="Lag_2" data-name="Lag 2"><g id="Integritet_og_tillid" data-name="Integritet og tillid"><path class="cls-1" d="M95.51,94.71c-2.1,1.33-3.57,3.45-5.39,5.14s-4.39,3-6.74,2.21A5.64,5.64,0,0,1,80,97.21a11.58,11.58,0,0,1,1.39-6,26.1,26.1,0,0,1,6.77-8.72c6-5,16.47-8.87,27.86-8.53,5.24.16,6,1.07,21.41,2.48,4.18.39,4.89.39,5.49.5,0,0,.23,0,.45.1,5,1.2,12,12.66,12,12.66,5.58,9.15,7.13,10.52,7.46,12a5,5,0,0,1,.06,1c-.08,2.8-2.56,5-5.94,7.61-4.63,3.59-6.94,5.38-7.91,5.64-6.49,1.78-10.34-7.53-23.5-14.67C121.85,99.25,103,90,95.51,94.71Z"/><path class="cls-1" d="M144,69.82c.4-1.61,2.11-2.46,3.58-3.24a28.62,28.62,0,0,0,7.69-6c1.06-1.17,3-1.67,4.39-2.43a5.84,5.84,0,0,1,4.55-.64A8.75,8.75,0,0,1,168,60.72q4.38,5.4,8.7,10.85A115.14,115.14,0,0,1,186.91,86a18.75,18.75,0,0,1,2.17,5.12,8,8,0,0,1-.52,5.45c-1,1.9-2.89,3.14-4.7,4.29L174.27,107c-1.51,1-3.22,2-5,1.67a5.12,5.12,0,0,1-3.43-2.79,21.41,21.41,0,0,1-1.49-4.32c-2.44-8.43-8-15.58-13.37-22.51-2-2.59-4.9-4.23-7-6.76a3.94,3.94,0,0,1-.75-1.22,1.46,1.46,0,0,1,.21-1.36C143.76,69.3,143.69,69.47,144,69.82Z"/><path class="cls-1" d="M99,76.55c-2.56-1.65-6-1.36-8.8-.3s-5.4,2.81-8.19,4a24.7,24.7,0,0,1-17.88.77c-6,11.34-12.83,21.2-18.84,32.54-1,1.87-2,3.84-2,6a8.2,8.2,0,0,0,3.29,6,19.87,19.87,0,0,0,6.3,3.08"/><path class="cls-1" d="M145.86,116c1.18,2.26,2.4,4.66,2.24,7.21a7.24,7.24,0,0,1-5.69,6.47c-3.53.67-6.94-1.37-9.95-3.32l-18.09-11.77"/><path class="cls-1" d="M137.86,129a6.51,6.51,0,0,1-.13,8.34,8.21,8.21,0,0,1-8.34,2.27,18.55,18.55,0,0,1-5.36-2.88l-12.33-8.48"/><path class="cls-1" d="M130,140.84c1.23,2.83-.81,6.28-3.66,7.47s-6.13.63-9-.4a29.88,29.88,0,0,1-11.73-7.65"/><path class="cls-1" d="M117.22,147.61a6.59,6.59,0,0,1-1.51,8,8.52,8.52,0,0,1-7.07,1.42,23.12,23.12,0,0,1-6.82-2.93"/><path class="cls-2" d="M62.89,83.78c1.82-3.47,3.67-7.53,1.92-11-1-2-3-3.4-5-4.59a61.7,61.7,0,0,0-11-5.17c-2.07-.74-4.56-1.33-6.39-.16A6.78,6.78,0,0,0,40.21,66q-3.74,8.56-7.49,17.12c-2.92,6.68-5.86,13.41-10.19,19.39-1.59,2.2-3.41,4.41-3.84,7a9.78,9.78,0,0,0,2,7.09,30.21,30.21,0,0,0,5.5,5.45,22.13,22.13,0,0,0,5.18,3.52,8.23,8.23,0,0,0,6.23.35c1.1-.44,2.11-1.28,4.8-6.26,1-1.85,2.32-4.45,3.71-7.67"/><path class="cls-3" d="M100,148.83a11.94,11.94,0,0,0-5.64-3c-2.46-.6-5.48-.4-7,1.64a5.23,5.23,0,0,0-.09,5.56,9.79,9.79,0,0,0,4.42,3.76A11.09,11.09,0,0,0,97.43,158c1.76-.18,4.5-1.27,5-3.2S101.3,150.15,100,148.83Z"/><path class="cls-4" d="M78,139.55a10.85,10.85,0,0,0-3.15-.31,4.28,4.28,0,0,0-2.82,1.3,4.09,4.09,0,0,0-.68,3.81,7.79,7.79,0,0,0,2.23,3.32,8.9,8.9,0,0,0,6.58,2.7c2.67-.22,5.47-2.74,4.9-5.56C84.41,141.46,81,140.18,78,139.55Z"/><path class="cls-5" d="M65.39,134.4a8.38,8.38,0,0,0-2.54-.25,3.47,3.47,0,0,0-2.28,1,3.32,3.32,0,0,0-.54,3.08,6.22,6.22,0,0,0,1.8,2.67,7.2,7.2,0,0,0,5.31,2.19c2.16-.18,4.42-2.22,4-4.5C70.55,135.94,67.8,134.91,65.39,134.4Z"/><path class="cls-6" d="M57.34,128.07a8.22,8.22,0,0,0-2.07-.61,3,3,0,0,0-2,.35,2.1,2.1,0,0,0-.91,2.08,4.49,4.49,0,0,0,1.1,2.21,6.61,6.61,0,0,0,4.07,2.46c1.81.25,4-.81,3.93-2.5C61.38,130.05,59.26,128.84,57.34,128.07Z"/></g><g id="Kreativitet"><circle class="cls-7" cx="102" cy="102" r="100"/></g></g></svg>