<svg xmlns="http://www.w3.org/2000/svg" viewBox="0 0 204 204"><defs><style>.cls-1,.cls-2,.cls-3{fill:none;stroke:#fff;stroke-miterlimit:10;}.cls-1{stroke-width:3.34px;}.cls-2,.cls-3{stroke-width:4px;}.cls-3{stroke-linecap:round;}</style></defs><g id="Lag_2" data-name="Lag 2"><g id="Kreativitet"><path class="cls-1" d="M73.49,118.6c-7.79,1-10.75,11-10.9,11.49-.21.78-.44,1.81-.31,9.5.19,11.3.74,12.5-.28,15.15-2.51,6.58-9.53,8.66-9.21,9.24.45.79,13.87-2,23.18-12.91,6.71-7.82,13-21.8,7.54-28.68A11.38,11.38,0,0,0,73.49,118.6Z"/><path class="cls-1" d="M76.64,115.9a179.32,179.32,0,0,1,2.73-24c0-.12,0-.25.07-.37A315.46,315.46,0,0,1,91.88,45.09l.49-1.4c2.19-6.19,3.7-9.89,3.7-9.89a109.17,109.17,0,0,1,4.91-11c0-.1.11-.2.17-.3,1.11-2,2.17-3.31,3-3.34a.43.43,0,0,1,.16,0h.05c1.86.43,1.62,8,1.51,11.74a220,220,0,0,1-3,31.19,181.79,181.79,0,0,1-8.79,34.07,106,106,0,0,1-11.21,22.22C81.92,119.88,76.55,118.36,76.64,115.9Z"/><path class="cls-2" d="M80.66,88.77l13,4"/><path class="cls-3" d="M52.78,164.32a16.56,16.56,0,0,0,16.75.72c2.41-1.32,4.49-3.25,7-4.29,5.08-2.08,10.85-.21,15.91,1.91s10.43,4.54,15.82,3.5c6.08-1.17,10.75-6.54,16.86-7.58,4.36-.75,8.76.83,12.79,2.66s8,4,12.44,4.41,9.39-1.28,11.24-5.29"/><circle class="cls-2" cx="102" cy="102" r="100"/></g></g></svg>