<svg id="Lag_1" data-name="Lag 1" xmlns="http://www.w3.org/2000/svg" viewBox="0 0 311.09 293.98"><defs><style>.cls-1{fill:#7860a6;}.cls-2{fill:#594696;}.cls-3{fill:#eabbd5;}.cls-3,.cls-4,.cls-5,.cls-6,.cls-8{stroke:#fff;stroke-miterlimit:10;}.cls-4,.cls-7{fill:#bcbbbb;}.cls-5{fill:#040304;}.cls-5,.cls-8{stroke-width:4.69px;}.cls-6{fill:#978ac1;stroke-width:1.1px;}.cls-8{fill:none;}</style></defs><path class="cls-1" d="M436.43,420.5a147,147,0,1,1-275.38-71.62c.86-1.55,1.76-3.09,2.68-4.6.38-.64.76-1.25,1.16-1.87A146.84,146.84,0,0,1,281,273.75c2.79-.15,5.59-.24,8.41-.24A147,147,0,0,1,436.43,420.5Z" transform="translate(-142.45 -273.51)"/><path class="cls-2" d="M386.24,531.11A147,147,0,0,1,161.05,348.88c.86-1.55,1.76-3.09,2.68-4.6.38-.64.76-1.25,1.16-1.87A146.84,146.84,0,0,1,281,273.75C325.89,293.14,288.3,285,274.3,285c-2.84,0-4.72.34-4.72,1.32A17.66,17.66,0,0,0,287.24,304h-.61c7.22,0,1.41,16,6.8,19.63,2.76,1.83,7.1-.43,10.85-2,17.18-7.09,36.53-3.8,37-1.56.41,1.85-43.52,31.35-54.67,19.21s-79.73-26.21-63.91,0-17.65,7.9-17.65,17.65a17.66,17.66,0,0,0,17.65,17.66s5.28,7.8,9.76,6.61c2.48-.65,2.28-4.13,4.54-6.61,6.29-6.88,47.38-2.79,33.24,4.44s29.85,17.38,30.78,19.24c.08.16.43.51.33.89-.28,1.32-4.87,1.33-6.42,1.33-23.78,0-40.28-8.26-40.28-8.26-3.6-1.81-6.22-3.33-8.3-2.33-5.7,2.74-1.85,20-9.35,20h-6.48a17.66,17.66,0,0,0-17.66,17.65c0,9.75,32.05-7,17.66,17.65s14.3,0,14.3,0c6.51-11.54,10.27-12.45,12.1-12.11,6.59,1.24,11.05,19.08,7.92,31.17-.63,2.45-1.3,4.83-3.29,6.64-5.31,4.84-14.54,1.65-15.62,1.25-2,13.15-5.87,17.32-9.33,18.46-6.13,2-11.67-5.18-23.13-3.45-1.33.2-7.59,1.14-8.11,3.85-.74,3.83,10.34,8.77,12.57,9.75q7.92.19,15.83.41,38-9.45,39.56-5.28,1.38,3.69-26.38,18.26c.61,10,2.58,12.58,4.3,13,6.11,1.58,14.47-20.48,25.65-20.41a6.24,6.24,0,0,1,3.83,1.54c11.82,9.19,42,8.88,67.26-.62,13.7-5.15,20.36-11.29,22.83-8.82,2.71,2.71-2.86,13.76-8.84,20.74s-13.67,11.59-22.09,14.8c12.53,3.79,22.11,8.87,33.36,4.17C380.13,535.71,385.32,530.18,386.24,531.11Z" transform="translate(-142.45 -273.51)"/><path class="cls-3" d="M403,430.27Z" transform="translate(-142.45 -273.51)"/><path class="cls-4" d="M403.15,393.68" transform="translate(-142.45 -273.51)"/><path class="cls-5" d="M403.79,361.9c10.86,1.89,19.15-10.24,19.57-10.86.62-1,1.38-2.24,4.55-12.6,4.66-15.22,4.44-17.05,7-20.19,6.22-7.76,16.51-7.62,16.33-8.54-.25-1.24-19.44-3-36.61,7.65-12.37,7.69-26.85,23.8-22.56,35.29C393.92,357.7,399.15,361.09,403.79,361.9Z" transform="translate(-142.45 -273.51)"/><path class="cls-6" d="M401.62,361a252.89,252.89,0,0,1-14.1,31.06l-.26.47c-12.38,23.25-27.12,44.14-36.81,57l-1.27,1.67c-5.61,7.38-9.24,11.7-9.24,11.7a155.3,155.3,0,0,1-11.35,12.68l-.36.34c-2.33,2.17-4.34,3.53-5.47,3.22l-.22-.08-.06,0c-2.3-1.36,1.3-11.34,3.09-16.37a312.39,312.39,0,0,1,17.52-40.56,260.58,260.58,0,0,1,26.57-42,151.39,151.39,0,0,1,24.66-25.09C396.3,353.51,402.82,357.78,401.62,361Z" transform="translate(-142.45 -273.51)"/><path class="cls-7" d="M401.62,361c-.13.37-.26.73-.41,1.1-2.09,5.59-4.47,11.17-7,16.68-2.17,4.64-4.49,9.24-6.89,13.74h0l-8.54-6-1-.71-.57-.4-7.5-5.28a151.39,151.39,0,0,1,24.66-25.09c1-.81,3.32,0,5.08,1.36a5.63,5.63,0,0,1,.45.38,6.9,6.9,0,0,1,1.49,1.84A2.88,2.88,0,0,1,401.62,361Z" transform="translate(-142.45 -273.51)"/><path class="cls-8" d="M401.62,361a252.89,252.89,0,0,1-14.1,31.06l-.26.47c-12.38,23.25-27.12,44.14-36.81,57l-1.27,1.67c-5.61,7.38-9.24,11.7-9.24,11.7a155.3,155.3,0,0,1-11.35,12.68l-.36.34c-2.33,2.17-4.34,3.53-5.47,3.22l-.22-.08-.06,0c-2.3-1.36,1.3-11.34,3.09-16.37a312.39,312.39,0,0,1,17.52-40.56,260.58,260.58,0,0,1,26.57-42,151.39,151.39,0,0,1,24.66-25.09C396.3,353.51,402.82,357.78,401.62,361Z" transform="translate(-142.45 -273.51)"/></svg>