<?xml version="1.0" encoding="utf-8"?>
<!-- Generator: Adobe Illustrator 26.1.0, SVG Export Plug-In . SVG Version: 6.00 Build 0)  -->
<svg version="1.1" xmlns="http://www.w3.org/2000/svg" xmlns:xlink="http://www.w3.org/1999/xlink" x="0px" y="0px"
	 viewBox="0 0 360.79 293.98" style="enable-background:new 0 0 360.79 293.98;" xml:space="preserve">
<style type="text/css">
	.st0{fill:#7860A6;}
	.st1{fill:#594696;}
	.st2{fill:#9F8CC1;stroke:#FFFFFF;stroke-width:5.2189;stroke-miterlimit:10;}
	.st3{fill:#040405;stroke:#FFFFFF;stroke-width:3.3389;stroke-miterlimit:10;}
	.st4{fill:#978AC1;stroke:#FFFFFF;stroke-width:0.7809;stroke-miterlimit:10;}
	.st5{fill:#BCBBBB;}
	.st6{fill:none;stroke:#FFFFFF;stroke-width:3.3389;stroke-miterlimit:10;}
</style>
<g id="Blå_planet">
</g>
<g id="Blå_planet_-_website">
</g>
<g id="Lyserød_planet_00000002348137132275268520000010045848161691562408_">
</g>
<g id="Lyserød_planet_-_brev">
</g>
<g id="Lilla_planet">
	<path class="st0" d="M293.98,146.99c0,44.1-19.43,83.67-50.19,110.61c-25.85,22.65-59.73,36.38-96.8,36.38
		C65.81,293.98,0,228.16,0,146.99c0-26,6.75-50.43,18.59-71.62c0.86-1.55,1.76-3.09,2.68-4.6c0.38-0.63,0.76-1.25,1.16-1.87
		C47.03,29.73,89.6,2.99,138.57,0.24c2.79-0.15,5.59-0.24,8.42-0.24C228.17,0,293.98,65.81,293.98,146.99z"/>
	<path class="st1" d="M243.78,257.6c-25.85,22.65-59.73,36.38-96.8,36.38C65.81,293.98,0,228.16,0,146.99
		c0-26,6.75-50.43,18.59-71.62c0.86-1.55,1.76-3.09,2.68-4.6c0.38-0.63,0.76-1.25,1.16-1.87C47.03,29.73,89.6,2.99,138.57,0.24
		c44.86,19.39,7.27,11.26-6.72,11.26c-2.85,0-4.72,0.33-4.72,1.31c0,9.75,7.9,17.65,17.65,17.65h-0.61c7.22,0,1.41,16.01,6.81,19.63
		c2.75,1.84,7.09-0.43,10.85-1.98c17.18-7.09,36.53-3.8,37.02-1.56c0.41,1.85-43.52,31.35-54.67,19.21
		c-11.16-12.13-79.73-26.21-63.91,0c15.83,26.21-17.65,7.9-17.65,17.65c0,9.75,7.9,17.65,17.65,17.65c0,0,5.28,7.81,9.76,6.62
		c2.48-0.66,2.28-4.14,4.54-6.62c6.29-6.88,47.38-2.79,33.24,4.45c-14.12,7.24,29.85,17.38,30.78,19.24
		c0.08,0.15,0.43,0.51,0.33,0.89c-0.29,1.31-4.88,1.32-6.42,1.32c-23.78,0.04-40.28-8.26-40.28-8.26c-3.6-1.81-6.22-3.33-8.31-2.32
		c-5.7,2.74-1.85,19.98-9.34,19.98h-6.48c-9.75,0-17.65,7.9-17.65,17.65c0,9.75,32.05-7.03,17.65,17.65c-14.41,24.68,14.3,0,14.3,0
		c6.51-11.55,10.27-12.46,12.1-12.11c6.59,1.24,11.05,19.07,7.93,31.17c-0.63,2.44-1.3,4.83-3.29,6.64
		c-5.32,4.84-14.54,1.64-15.63,1.25c-1.98,13.15-5.86,17.32-9.33,18.45c-6.13,2.03-11.67-5.17-23.12-3.44
		c-1.34,0.2-7.59,1.14-8.12,3.85c-0.74,3.83,10.35,8.77,12.57,9.75c5.28,0.13,10.55,0.26,15.83,0.41
		c25.34-6.29,38.53-8.05,39.56-5.28c0.92,2.47-7.87,8.56-26.38,18.26c0.61,10.01,2.57,12.59,4.3,13.04
		c6.1,1.59,14.47-20.48,25.65-20.41c1.2,0,2.47,0.48,3.83,1.54c11.82,9.19,42.04,8.88,67.26-0.62c13.7-5.15,20.36-11.29,22.83-8.82
		c2.72,2.72-2.86,13.77-8.83,20.74c-5.86,6.87-13.67,11.6-22.1,14.8c12.54,3.79,22.11,8.87,33.36,4.17
		C237.68,262.2,242.87,256.67,243.78,257.6z"/>
</g>
<g id="Lilla_planet_-_malerpalette">
	<g>
		<path class="st2" d="M178.09,142.9c0,35.73,39.42,64.69,88.04,64.69c12.33,0,23.69-2.31,26.18-2.9
			c2.51-0.6,40.5-10.01,42.91-26.49c2.09-14.26-23.94-23.85-19.21-30.75c4.16-6.09,27.76,2.5,36.78-4.87
			c9.27-7.57-1.64-27.64-15.2-40c-1.66-1.52-29.09-25.69-71.46-24.37C224.98,79.5,178.09,104.57,178.09,142.9z M290.48,117.28
			c0-7.16,7.9-12.96,17.64-12.96c9.74,0,17.63,5.8,17.63,12.96c0,7.15-7.9,12.96-17.63,12.96
			C298.37,130.24,290.48,124.43,290.48,117.28z"/>
		<g>
			<g>
				<path class="st3" d="M220.42,112.71c-7.83-0.59-11.33-10.38-11.5-10.88c-0.26-0.76-0.55-1.78-0.83-9.47
					c-0.42-11.29,0.07-12.52-1.09-15.11c-2.87-6.43-9.99-8.12-9.7-8.72c0.4-0.81,13.96,1.29,23.85,11.64
					c7.12,7.45,14.15,21.06,9.08,28.23C228,111.53,223.77,112.96,220.42,112.71z"/>
				<path class="st4" d="M222.07,112.49c0.74,7.89,2.19,15.98,4.03,23.85c0.03,0.12,0.06,0.24,0.09,0.37
					c4.28,18.17,10.61,35.12,14.94,45.67c0.18,0.44,0.37,0.9,0.56,1.37c2.52,6.06,4.23,9.67,4.23,9.67c1.51,3.25,3.6,7.67,5.5,10.71
					c0.06,0.1,0.12,0.2,0.19,0.29c1.21,1.9,2.34,3.19,3.19,3.17c0.06,0,0.11,0,0.17-0.02c0.02,0,0.03-0.01,0.04-0.01
					c1.83-0.53,1.19-8.03,0.87-11.81c0,0-0.79-13.48-4.65-30.99c-2.3-10.42-5.68-22.27-10.63-33.54
					c-3.36-7.66-7.45-15.06-12.4-21.57C227.13,108.24,221.85,110.04,222.07,112.49z"/>
				<path class="st5" d="M222.07,112.49c0.03,0.28,0.05,0.55,0.08,0.83c0.42,4.21,1.04,8.47,1.81,12.72
					c0.65,3.57,1.4,7.14,2.24,10.66l0,0c0.08-0.03,6.91-2.63,6.99-2.66c0,0,0.82-0.31,0.82-0.31c0.15-0.06,0.31-0.12,0.46-0.18
					l6.14-2.33c-3.36-7.66-7.45-15.06-12.4-21.57c-0.56-0.74-2.28-0.6-3.76,0.05c-0.13,0.06-0.25,0.11-0.38,0.18
					c-0.53,0.28-1.01,0.62-1.36,1.01C222.27,111.37,222.02,111.92,222.07,112.49z"/>
			</g>
			<path class="st6" d="M222.07,112.49c0.74,7.89,2.19,15.98,4.03,23.85c0.03,0.12,0.06,0.24,0.09,0.37
				c4.28,18.17,10.61,35.12,14.94,45.67c0.18,0.44,0.37,0.9,0.56,1.37c2.52,6.06,4.23,9.67,4.23,9.67c1.51,3.25,3.6,7.67,5.5,10.71
				c0.06,0.1,0.12,0.2,0.19,0.29c1.21,1.9,2.34,3.19,3.19,3.17c0.06,0,0.11,0,0.17-0.02c0.02,0,0.03-0.01,0.04-0.01
				c1.83-0.53,1.19-8.03,0.87-11.81c0,0-0.79-13.48-4.65-30.99c-2.3-10.42-5.68-22.27-10.63-33.54c-3.36-7.66-7.45-15.06-12.4-21.57
				C227.13,108.24,221.85,110.04,222.07,112.49z"/>
		</g>
	</g>
</g>
</svg>
