<svg id="LinkedIn" xmlns="http://www.w3.org/2000/svg" viewBox="0 0 29.3 29.3"><defs><style>.cls-1{fill:#fff;}</style></defs><circle class="cls-1" cx="14.65" cy="14.65" r="14.65"/><path d="M9,6.08A2.07,2.07,0,0,0,7.45,7.57a2.07,2.07,0,0,0,.67,2,1.85,1.85,0,0,0,1.1.42,1.77,1.77,0,0,0,1.59-1A2,2,0,0,0,10.62,7,2.37,2.37,0,0,0,9,6"/><path d="M8.87,5.76A2.53,2.53,0,0,0,7,7.5a2.31,2.31,0,0,0,.76,2.35,2.27,2.27,0,0,0,2.71.07,2.21,2.21,0,0,0,.87-2.37A2.66,2.66,0,0,0,9.11,5.69.58.58,0,0,0,8.52,6c-.1.21.08.37.28.4a2,2,0,0,1,1.53,1.08,1.66,1.66,0,0,1-.2,1.81,1.13,1.13,0,0,1-.66.37,1.26,1.26,0,0,1-.84-.21,1.79,1.79,0,0,1-.75-1.66,1.59,1.59,0,0,1,.38-.88A1.44,1.44,0,0,1,9,6.41c.19,0,.43-.23.37-.45s-.36-.25-.54-.2Z"/><path d="M7.85,11.61a5.47,5.47,0,0,0,1.27-.12,1.53,1.53,0,0,1,1.22.27,1.85,1.85,0,0,1,.4,1.41l0,7.35a1.46,1.46,0,0,1-.13.75,1.5,1.5,0,0,1-1.35.49A1.81,1.81,0,0,1,8,21.42a1.8,1.8,0,0,1-.36-1.35V11.68"/><path d="M7.56,11.81c.82,0,2.12-.55,2.57.43a2.66,2.66,0,0,1,.16,1v6.33a5.87,5.87,0,0,1,0,1.51c-.14.52-.73.46-1.17.42a1,1,0,0,1-1-.87,13.59,13.59,0,0,1,0-2.78l0-6.35c0-.17-.91,0-.91.25v6.14a19.22,19.22,0,0,0,0,2.84,1.3,1.3,0,0,0,1.26,1.16,4.08,4.08,0,0,0,2-.23c.72-.33.76-.9.76-1.62l0-6c0-.78.21-2-.55-2.56s-1.7,0-2.51-.1a1,1,0,0,0-.64.18c-.12.1-.15.21.06.22Z"/><path d="M14,11.69l2.07-.1a.79.79,0,0,1,.51.08c.29.19.22.63.11,1a5.62,5.62,0,0,1,3.13-1.14A3.29,3.29,0,0,1,22.67,13a5.5,5.5,0,0,1,.55,2.55l.24,5.12a.93.93,0,0,1-.23.83,1,1,0,0,1-.6.12l-1.57-.05a.69.69,0,0,1-.45-.11.78.78,0,0,1-.2-.65l0-3.6a5.46,5.46,0,0,0-.17-1.76,1.84,1.84,0,0,0-1.18-1.23,1.64,1.64,0,0,0-1.51.47,2.7,2.7,0,0,0-.7,1.47,7.58,7.58,0,0,0-.06,1.65l.1,2.7a1.52,1.52,0,0,1-.13.82c-.26.42-.85.45-1.35.43a3.21,3.21,0,0,1-.88-.1,1.12,1.12,0,0,1-.68-.54,1.58,1.58,0,0,1-.12-.61,42.84,42.84,0,0,1,.37-8.62"/><path d="M13.79,11.93l1.69-.09c.24,0,.61-.1.77.14s0,.52,0,.72c-.1.35.72.06.81,0a3.92,3.92,0,0,1,4.11-.59c1.31.68,1.55,2,1.62,3.37.09,1.56.15,3.13.23,4.69,0,.28.13.8,0,1.06v.12h-.36l-.58,0c-.4,0-1,.09-1.15-.38a5.06,5.06,0,0,1,0-1.29l0-2.2a5.94,5.94,0,0,0-.22-2.3A2,2,0,0,0,18,14.09a3,3,0,0,0-1.69,3.07c0,.7,0,1.4.07,2.09,0,.39,0,.78,0,1.16s.07,1-.56,1.09a2,2,0,0,1-1.31-.25c-.37-.26-.36-.69-.39-1.1q-.06-1.3-.06-2.61a44.09,44.09,0,0,1,.44-5.74c.05-.32-.86-.16-.9.12a45.11,45.11,0,0,0-.44,5.56c0,1,0,1.95,0,2.92,0,.72.24,1.24,1,1.46,1.07.3,3.06.22,3.1-1.24,0-.89-.06-1.79-.09-2.67a5.79,5.79,0,0,1,.28-2.68c.19-.4.58-.93,1.09-.87a1.35,1.35,0,0,1,.92.66A4.41,4.41,0,0,1,20,17.6l0,2.8a2,2,0,0,0,.12,1.08,1,1,0,0,0,.8.3,6.39,6.39,0,0,0,2.39-.07c.67-.27.66-.86.63-1.49-.09-1.82-.12-3.66-.27-5.48A3.43,3.43,0,0,0,21,11.38a6,6,0,0,0-4.72,1.2h.82c.15-.54.13-1.13-.53-1.22a12.36,12.36,0,0,0-2.43.1c-.17,0-.53,0-.61.24s.06.24.24.23Z"/></svg>