<svg id="mail" xmlns="http://www.w3.org/2000/svg" viewBox="0 0 29.3 29.3"><defs><style>.cls-1{fill:#fff;}</style></defs><circle class="cls-1" cx="14.65" cy="14.65" r="14.65"/><path d="M6.52,9.69,11,13.24,13.13,15a8.24,8.24,0,0,0,2,1.46,1.82,1.82,0,0,0,1.81-.53c.72-.6,1.41-1.23,2.12-1.85l4.47-3.89c.77-.68-.36-1.8-1.13-1.13l-3.76,3.28L17,13.75c-.32.27-.62.57-.95.82s-.47.31-.93-.06L7.64,8.56c-.79-.63-1.92.49-1.12,1.13Z"/><path d="M12.28,13.32c-1.8,2.19-3.83,4.17-5.63,6.36A.8.8,0,1,0,7.78,20.8c1.8-2.18,3.82-4.17,5.62-6.35a.83.83,0,0,0,0-1.13.8.8,0,0,0-1.12,0Z"/><path d="M17.47,14.92a28.36,28.36,0,0,1,4.8,5.46.83.83,0,0,0,1.09.29.8.8,0,0,0,.28-1.09,29.67,29.67,0,0,0-5.05-5.79.82.82,0,0,0-1.12,0,.8.8,0,0,0,0,1.13Z"/><path d="M6.85,11.37a6.27,6.27,0,0,1,.24-1.78A2,2,0,0,1,9,8.6c1.84-.15,3.73-.06,5.58,0s3.86,0,5.78.09c.75,0,1.82-.06,2.36.59a3.91,3.91,0,0,1,.48,2.43c0,1.72-.08,3.44-.1,5.15a11.64,11.64,0,0,1,0,2.21c-.24,1-1.33,1.2-2.22,1.28a80.34,80.34,0,0,1-10.75,0c-.85,0-2.14.09-2.76-.61a4.2,4.2,0,0,1-.58-2.54c-.1-2,.14-4,.1-5.93a.8.8,0,0,0-1.59,0c.05,2.28-.28,4.56,0,6.83.2,1.86.88,3.36,2.89,3.69a45.92,45.92,0,0,0,6.53.3,48.47,48.47,0,0,0,6.92-.24,3.86,3.86,0,0,0,2.35-1.1,3.42,3.42,0,0,0,.75-2.54c0-2.17.13-4.34.1-6.51,0-1.82-.33-3.77-2.33-4.38A11.84,11.84,0,0,0,19.3,7L15.45,7h-4.2a12.09,12.09,0,0,0-3.6.26c-2,.63-2.23,2.3-2.39,4.14-.09,1,1.5,1,1.59,0Z"/></svg>