<svg id="Lag_1" data-name="Lag 1" xmlns="http://www.w3.org/2000/svg" viewBox="0 0 361.85 293.98"><defs><style>.cls-1{fill:#f3a9cb;}.cls-2{fill:#e4609f;}.cls-3,.cls-4{fill:#dda6c7;}.cls-3,.cls-6,.cls-7{stroke:#fff;stroke-miterlimit:10;}.cls-3{stroke-width:5.25px;}.cls-5{fill:#fff;}.cls-6{fill:none;stroke-width:4.51px;}.cls-7{stroke-width:4.32px;}</style></defs><path class="cls-1" d="M411.05,420.5a147,147,0,1,1-275.38-71.62c.86-1.55,1.76-3.09,2.68-4.6.38-.64.76-1.25,1.16-1.87a146.84,146.84,0,0,1,116.14-68.66c2.79-.15,5.59-.24,8.41-.24A147,147,0,0,1,411.05,420.5Z" transform="translate(-117.07 -273.51)"/><path class="cls-2" d="M360.86,531.11A147,147,0,0,1,135.67,348.88c.86-1.55,1.76-3.09,2.68-4.6.38-.64.76-1.25,1.16-1.87a146.84,146.84,0,0,1,116.14-68.66c44.86,19.39,7.27,11.26-6.73,11.26-2.85,0-4.72.34-4.72,1.32A17.66,17.66,0,0,0,261.86,304h-.61c7.22,0,1.4,16,6.8,19.63,2.76,1.83,7.1-.43,10.85-2,17.18-7.09,36.53-3.8,37-1.56.41,1.85-43.52,31.35-54.67,19.21s-79.73-26.21-63.91,0-17.66,7.9-17.66,17.65a17.66,17.66,0,0,0,17.66,17.66s5.28,7.8,9.76,6.61c2.48-.65,2.28-4.13,4.54-6.61,6.29-6.88,47.38-2.79,33.24,4.44s29.85,17.38,30.78,19.24c.08.16.43.51.33.89-.28,1.32-4.87,1.33-6.42,1.33-23.78,0-40.28-8.26-40.28-8.26-3.6-1.81-6.22-3.33-8.3-2.33-5.7,2.74-1.85,20-9.35,20h-6.48a17.66,17.66,0,0,0-17.66,17.65c0,9.75,32.05-7,17.66,17.65s14.3,0,14.3,0c6.51-11.54,10.27-12.45,12.1-12.11,6.59,1.24,11.05,19.08,7.92,31.17-.63,2.45-1.3,4.83-3.29,6.64-5.31,4.84-14.54,1.65-15.62,1.25-2,13.15-5.87,17.32-9.33,18.46-6.13,2-11.67-5.18-23.13-3.45-1.33.2-7.59,1.14-8.12,3.85-.73,3.83,10.35,8.77,12.58,9.75q7.92.19,15.83.41,38-9.45,39.56-5.28,1.38,3.69-26.38,18.26c.61,10,2.58,12.58,4.3,13,6.11,1.58,14.47-20.48,25.65-20.41a6.24,6.24,0,0,1,3.83,1.54c11.82,9.19,42,8.88,67.26-.62,13.7-5.15,20.36-11.29,22.83-8.82,2.71,2.71-2.87,13.76-8.84,20.74s-13.67,11.59-22.1,14.8c12.54,3.79,22.12,8.87,33.37,4.17C354.75,535.71,359.94,530.18,360.86,531.11Z" transform="translate(-117.07 -273.51)"/><rect class="cls-3" x="178.09" y="76.84" width="181.14" height="128.81" rx="11.32"/><path class="cls-4" d="M471.21,355l-79.64,83.55a5.59,5.59,0,0,1-8.18,0L303.75,355" transform="translate(-117.07 -273.51)"/><path class="cls-5" d="M469.41,353.17,404.73,421l-8.46,8.87-3.76,3.94L390.46,436a5.66,5.66,0,0,1-1.86,1.55c-2.61,1-4.54-2-6.16-3.71l-8.16-8.56-32.07-33.65-36.66-38.47c-2.27-2.38-5.87,1.23-3.61,3.61l66.37,69.63,8.48,8.9,4.11,4.3a9.66,9.66,0,0,0,4.43,3c3.4.93,6.41-.52,8.73-3l8.53-8.94,33.1-34.73L473,356.78c2.27-2.38-1.33-6-3.6-3.61Z" transform="translate(-117.07 -273.51)"/><line class="cls-6" x1="182.72" y1="203.44" x2="236.38" y2="134.86"/><line class="cls-7" x1="355.65" y1="201.94" x2="304.58" y2="136.43"/></svg>