<svg id="Layer_1" data-name="Layer 1" xmlns="http://www.w3.org/2000/svg" viewBox="0 0 1882.68 1677.35"><defs><style>.cls-1{fill:#232147;}.cls-1,.cls-5{stroke:#009fe3;stroke-width:2px;}.cls-1,.cls-2,.cls-3,.cls-4,.cls-5,.cls-6,.cls-7,.cls-8{stroke-miterlimit:10;}.cls-2,.cls-3,.cls-5,.cls-6,.cls-7{fill:none;}.cls-2{stroke:#e6007e;stroke-width:3px;}.cls-3,.cls-4,.cls-6,.cls-7,.cls-8{stroke:#f4a9cb;}.cls-3,.cls-4,.cls-8{stroke-width:4px;}.cls-4,.cls-8{fill:#f4a9cb;}.cls-6{stroke-width:7px;}.cls-7{stroke-width:6px;}.cls-8{font-size:241.25px;font-family:OstrichSans-Medium, Ostrich Sans;font-weight:500;}</style></defs><rect class="cls-1" x="1" y="1" width="1702.49" height="1214.36"/><path class="cls-2" d="M1046.93-57.77" transform="translate(11.1 11.49)"/><path class="cls-3" d="M1129.88,178.19c-16.91,22.93-43.46,49.5-76,74.6s-64.88,44-91.33,54.64a107.86,107.86,0,0,1-34.72-57.93c-.23-1.05-.45-2.1-.64-3.15a107.89,107.89,0,0,1,152.51-117.79c1,.47,1.93.94,2.87,1.43A108.22,108.22,0,0,1,1129.88,178.19Z" transform="translate(11.1 11.49)"/><path class="cls-3" d="M1141,225.83A107.89,107.89,0,0,1,986.47,323.1c25.8-10.83,54.76-27.83,83.26-49.84S1122,227.53,1139,205.31A107.52,107.52,0,0,1,1141,225.83Z" transform="translate(11.1 11.49)"/><path class="cls-4" d="M1139,205.31c-17,22.22-40.76,45.94-69.26,67.95s-57.46,39-83.26,49.84c-39.07,16.42-70.91,18.71-83.09,2.94s-1.91-46,23.85-79.69c.19,1.05.41,2.1.64,3.15-21.39,27-30.61,49.81-22.12,60.79,7.8,10.1,29,8.25,56.84-2.86,26.45-10.59,58.86-29.56,91.33-54.64s59-51.67,76-74.6c17.79-24.08,24.92-44.15,17.12-54.25-8.49-11-32.9-7.83-64.39,6.05-.94-.49-1.91-1-2.87-1.43,39.06-16.41,70.91-18.7,83.1-2.93S1164.75,171.65,1139,205.31Z" transform="translate(11.1 11.49)"/><path class="cls-3" d="M391.32,879.19c-.06.7-.16,1.4-.28,2.11-1.88,10.43-11.85,20.23-31,27.51l-1.89.69c-21.68,7.81-52.23,12.67-86.09,12.67s-64.49-4.88-86.16-12.7h0l-1.88-.69-1.78-.69c-18-7.2-27.83-16.62-29.11-26.79a13.27,13.27,0,0,1-.11-2.18c.67-2.51,1.43-5,2.27-7.41,5.58-16.37,13.52-31.63,25.95-43.64a12.86,12.86,0,0,0-1.8,6.44c0,6,4.63,11.66,12.71,16.51,16.08,9.65,45.81,16.13,79.83,16.13s63.83-6.49,79.9-16.17c8-4.84,12.65-10.46,12.65-16.47a13.3,13.3,0,0,0-2.46-7.5c10.65,11.31,20,24.64,25.81,39.35C389.53,870.53,390.13,874.81,391.32,879.19Z" transform="translate(11.1 11.49)"/><path class="cls-4" d="M395.63,911.6a123.44,123.44,0,0,1-1.45,19,121.65,121.65,0,0,1-3.53,15.84c-4.6,5-12,9.66-20.7,13.6,0,0-.05,0-.08,0-1,.44-2,.88-3,1.31l-1.58.65h0c-22.06,8.87-55.65,14.55-93.3,14.55-37.91,0-71.72-5.76-93.76-14.74l-1.55-.65c-9.49-4-17.63-8.56-22.65-13.55a120.9,120.9,0,0,1-3.76-16.32,122.79,122.79,0,0,1-1.57-19.68c0-11.24.8-22.39,4.33-32.48a13.27,13.27,0,0,0,.11,2.18c1.23,10.07,11,19.61,29.11,26.79l1.78.69,1.88.69h0c21.67,7.82,52.26,12.7,86.16,12.7s64.41-4.86,86.09-12.67l1.89-.69c19.24-7.27,28.85-16.72,31-27.51.12-.71.22-1.41.28-2.11A123.22,123.22,0,0,1,395.63,911.6Z" transform="translate(11.1 11.49)"/><path class="cls-4" d="M366.14,991.67a123.47,123.47,0,0,1-184.3,4.1c17.06,13.4,51.27,22.55,89.84,22.55C314.06,1018.32,351.23,1007.27,366.14,991.67Z" transform="translate(11.1 11.49)"/><path class="cls-3" d="M390.65,946.4a122.72,122.72,0,0,1-21.27,41.31l0,0q-1.54,2-3.2,3.91c-14.91,15.6-52.08,26.65-94.46,26.65-38.57,0-72.78-9.15-89.84-22.55l0,0A124.09,124.09,0,0,1,154,947.6c5,5,13.16,9.57,22.65,13.55l1.55.65c22,9,55.85,14.74,93.76,14.74,37.65,0,71.24-5.68,93.3-14.55h0l1.58-.65c1-.43,2-.87,3-1.31,0,0,.05,0,.08,0C378.64,956.06,386.05,951.37,390.65,946.4Z" transform="translate(11.1 11.49)"/><path class="cls-5" d="M395.63,936" transform="translate(11.1 11.49)"/><path class="cls-3" d="M313.31,803.54a5.72,5.72,0,0,1-.25,1.69c-2.24,7.71-19.69,13.71-40.89,13.71s-38.74-6-40.93-13.76a6.07,6.07,0,0,1-.23-1.64c0-8,16.23-14.55,37-15.33.67,0,1.34,0,2-.05l2.11,0,2.11,0c1.36,0,2.7.07,4,.14h.05l1.22.09c.83.05,1.65.12,2.46.2.62,0,1.24.11,1.84.18,1.22.13,2.41.29,3.58.46l1.72.28,1.69.31c1.12.2,2.19.43,3.24.69l1.56.38c1,.26,2,.54,2.94.85.47.14.93.3,1.4.46s.9.32,1.33.48a32.39,32.39,0,0,1,3.08,1.3c.39.17.76.36,1.12.54l1.05.58.41.23a19,19,0,0,1,1.93,1.28c.28.21.55.42.8.63s.5.43.73.65l.34.33c.11.11.22.22.32.34a10.14,10.14,0,0,1,.73.89,3.79,3.79,0,0,1,.25.35,8.63,8.63,0,0,1,.69,1.25c.08.19.16.4.23.59s.07.25.1.37a2.62,2.62,0,0,1,.09.38A5.6,5.6,0,0,1,313.31,803.54Z" transform="translate(11.1 11.49)"/><path class="cls-5" d="M153,879.12" transform="translate(11.1 11.49)"/><path class="cls-5" d="M155.3,871.71" transform="translate(11.1 11.49)"/><path class="cls-5" d="M387.07,866.36" transform="translate(11.1 11.49)"/><path class="cls-5" d="M391.32,879.19" transform="translate(11.1 11.49)"/><path class="cls-4" d="M364.54,834.51c0,6-4.61,11.63-12.65,16.47-16.07,9.68-45.84,16.17-79.9,16.17s-63.75-6.48-79.83-16.13c-8.08-4.85-12.71-10.49-12.71-16.51a12.86,12.86,0,0,1,1.8-6.44,125,125,0,0,1,9.15-9,122.81,122.81,0,0,1,73.84-30.67c-19,1.39-33.23,7.63-33.23,15.12a6.07,6.07,0,0,0,.23,1.64c2.19,7.74,19.68,13.76,40.93,13.76s38.65-6,40.89-13.71a5.72,5.72,0,0,0,.25-1.69,5.6,5.6,0,0,0-.11-1.15,2.62,2.62,0,0,0-.09-.38c0-.12-.06-.25-.1-.37s-.15-.4-.23-.59a8.63,8.63,0,0,0-.69-1.25,3.79,3.79,0,0,0-.25-.35,10.14,10.14,0,0,0-.73-.89c-.1-.12-.21-.23-.32-.34s-.22-.22-.34-.33-.47-.44-.73-.65-.52-.43-.8-.63a19,19,0,0,0-1.93-1.28,4.23,4.23,0,0,0-.41-.23c-.33-.2-.69-.4-1.05-.58s-.73-.37-1.12-.54a32.39,32.39,0,0,0-3.08-1.3c-.43-.17-.88-.34-1.33-.48s-.93-.32-1.4-.46c-.94-.31-1.93-.59-2.94-.85-.51-.13-1-.27-1.56-.38-1.05-.26-2.12-.49-3.24-.69-.55-.12-1.11-.21-1.69-.31s-1.14-.19-1.72-.28c-1.17-.17-2.36-.33-3.58-.46-.6-.08-1.22-.13-1.84-.18-.81-.08-1.63-.15-2.46-.2l-1.22-.09a122.92,122.92,0,0,1,76.72,31.81c2.43,2.21,4.78,4.51,7,6.9A13.3,13.3,0,0,1,364.54,834.51Z" transform="translate(11.1 11.49)"/><polygon class="cls-4" points="1573.54 418.52 1576.89 439.1 1593.79 451.32 1575.25 460.87 1568.85 480.72 1554.04 466.03 1533.19 466.08 1542.58 447.46 1536.09 427.64 1556.7 430.81 1573.54 418.52"/><path class="cls-6" d="M1231.24,886.46a128.58,128.58,0,0,1-235.89,70.83,128.59,128.59,0,0,0,164-186.27A128.56,128.56,0,0,1,1231.24,886.46Z" transform="translate(11.1 11.49)"/><path class="cls-7" d="M748.74,646.62" transform="translate(11.1 11.49)"/><path class="cls-7" d="M754.79,661.62" transform="translate(11.1 11.49)"/><path class="cls-7" d="M747.89,649.92a11.46,11.46,0,0,0,4,9.91" transform="translate(11.1 11.49)"/><path class="cls-7" d="M771.49,649a22.88,22.88,0,0,0-8-19.84,22.48,22.48,0,0,0-5.81-3.56" transform="translate(11.1 11.49)"/><path class="cls-7" d="M759.27,651.09" transform="translate(11.1 11.49)"/><path class="cls-7" d="M769.79,655.57" transform="translate(11.1 11.49)"/><path class="cls-7" d="M757.69,625.58a34.29,34.29,0,0,0-45,18.13" transform="translate(11.1 11.49)"/><path class="cls-7" d="M742.93,718.7a91.37,91.37,0,0,0,120-48.37" transform="translate(11.1 11.49)"/><path class="cls-7" d="M747.89,649.92a11.46,11.46,0,0,0,4,9.91" transform="translate(11.1 11.49)"/><path class="cls-7" d="M767.55,660.83" transform="translate(11.1 11.49)"/><path class="cls-7" d="M758.09,662.47a11.49,11.49,0,0,0,9.92-4" transform="translate(11.1 11.49)"/><path class="cls-7" d="M760.05,663.85" transform="translate(11.1 11.49)"/><path class="cls-7" d="M708.44,660.19a57.29,57.29,0,0,0,20,49.6" transform="translate(11.1 11.49)"/><path class="cls-7" d="M1355.13,861.91" transform="translate(11.1 11.49)"/><path class="cls-7" d="M771.49,649a22.88,22.88,0,0,0-8-19.84,22.48,22.48,0,0,0-5.81-3.56,34.29,34.29,0,0,0-45,18.13,57.13,57.13,0,0,0,30.23,75,91.37,91.37,0,0,0,120-48.37,148.49,148.49,0,0,0-78.59-195,239.89,239.89,0,0,0-315,127m289.9,48.76-1.18,11.38a11.49,11.49,0,0,0,9.92-4m-20.12-8.55a11.46,11.46,0,0,0,4,9.91m-3.15-13.21,16.57,19.47" transform="translate(11.1 11.49)"/><path class="cls-7" d="M769.79,655.57a22.73,22.73,0,0,0,1.7-6.59" transform="translate(11.1 11.49)"/><path class="cls-7" d="M769.79,655.57a11.35,11.35,0,0,1-1.78,2.9" transform="translate(11.1 11.49)"/><path class="cls-7" d="M758.09,662.47a11.9,11.9,0,0,1-3.3-.85,11.38,11.38,0,0,1-2.9-1.79" transform="translate(11.1 11.49)"/><path class="cls-7" d="M748.74,646.62" transform="translate(11.1 11.49)"/><path class="cls-7" d="M747.89,649.92" transform="translate(11.1 11.49)"/><path class="cls-7" d="M1868.6,1665.54c-.23-2-.43-4.12-.57-6.19C1868.19,1661.42,1868.37,1663.49,1868.6,1665.54Z" transform="translate(11.1 11.49)"/><path class="cls-7" d="M1868.6,1665.54c-.23-2-.43-4.12-.57-6.19C1868.19,1661.42,1868.37,1663.49,1868.6,1665.54Z" transform="translate(11.1 11.49)"/><polygon class="cls-7" points="507.78 660.33 478.79 652.27 458.98 674.91 457.69 644.85 430.02 633.01 458.22 622.49 460.93 592.52 479.65 616.08 508.99 609.4 492.37 634.49 507.78 660.33"/><polygon class="cls-7" points="561.1 573.45 554.71 572.4 552.86 578.61 551.88 572.2 545.4 572.36 551.19 569.46 549.04 563.34 553.59 567.95 558.74 564.01 555.76 569.77 561.1 573.45"/><polygon class="cls-7" points="558.95 481.5 555.91 477.1 551.17 479.55 554.41 475.31 550.62 471.55 555.65 473.33 558.05 468.56 557.92 473.9 563.2 474.7 558.08 476.23 558.95 481.5"/><polygon class="cls-7" points="684.59 502.49 685.88 504.37 687.91 503.32 686.52 505.14 688.15 506.74 686 505.98 684.97 508.02 685.03 505.74 682.77 505.4 684.96 504.75 684.59 502.49"/><polygon class="cls-7" points="840.26 565.45 840.4 564.69 839.66 564.46 840.43 564.35 840.42 563.58 840.76 564.28 841.49 564.03 840.93 564.57 841.39 565.19 840.71 564.82 840.26 565.45"/><polygon class="cls-7" points="792.6 457.84 792.02 456.5 790.62 456.9 791.72 455.94 790.9 454.74 792.15 455.48 793.05 454.33 792.73 455.75 794.09 456.25 792.65 456.38 792.6 457.84"/><polygon class="cls-6" points="1523.24 629.82 1471.07 590.76 1425.75 637.59 1446.78 575.91 1388.24 547.27 1453.4 548.21 1462.54 483.69 1481.78 545.95 1545.97 534.7 1492.71 572.25 1523.24 629.82"/><polygon class="cls-6" points="1421.33 738.71 1425.04 722.02 1408.96 716.24 1425.97 714.62 1426.5 697.53 1433.3 713.21 1449.71 708.43 1436.91 719.75 1446.52 733.88 1431.8 725.2 1421.33 738.71"/><text class="cls-8" transform="translate(192.94 336.26)">DS</text></svg>