<svg id="telefon" xmlns="http://www.w3.org/2000/svg" viewBox="0 0 29.3 29.3"><defs><style>.cls-1{fill:#fff;}</style></defs><circle class="cls-1" cx="14.65" cy="14.65" r="14.65"/><path d="M10.06,9.85c.21.15.14.13.82.72a11.14,11.14,0,0,1,.81.83,4.57,4.57,0,0,1,.56.78,1.05,1.05,0,0,1,.12,1c-.22.5-1.68,1.13-1.83,1.65a1.31,1.31,0,0,0,.37,1.09,16.52,16.52,0,0,0,2.51,2.64c.44.38,1,.76,1.58.52s1.57-1.64,2-1.81a1.11,1.11,0,0,1,.89.06,3,3,0,0,1,.74.55,5,5,0,0,1,1.13,1.26,1.75,1.75,0,0,1,.13,1.63,6.25,6.25,0,0,1-2.58,2A7.17,7.17,0,0,1,12,21.39a15.29,15.29,0,0,1-3.77-4.12,7.63,7.63,0,0,1-1.28-2.44,4.28,4.28,0,0,1,0-2.7C7.5,10.57,9.35,9.32,10.06,9.85Z"/><path d="M9.94,10.06a9.49,9.49,0,0,1,.82.73c.49.45,1.79,1.57,1.33,2.35s-2,.91-1.78,2.11a4.43,4.43,0,0,0,1.15,1.69,13.86,13.86,0,0,0,1.94,1.89,1.87,1.87,0,0,0,1.48.51,2.18,2.18,0,0,0,1-.75,6.45,6.45,0,0,1,1-1c.82-.51,2,.84,2.47,1.5a1.53,1.53,0,0,1-.23,2.13,6.94,6.94,0,0,1-1.53,1.16c-1.42.75-3.54,0-4.82-.69a12.35,12.35,0,0,1-3.74-3.53c-1.05-1.42-2.22-3-2.16-4.86a3.7,3.7,0,0,1,1.24-2.53c.39-.36,1.22-1,1.78-.67.26.16.5-.25.24-.42-1-.61-2.29.59-2.85,1.29a4.49,4.49,0,0,0-.45,4.58,12.14,12.14,0,0,0,1.47,2.41,18.07,18.07,0,0,0,1.74,2.16,9.29,9.29,0,0,0,4.77,2.85,5.54,5.54,0,0,0,2.56,0,4.44,4.44,0,0,0,1.44-.87,4.35,4.35,0,0,0,1.2-1.22,2.17,2.17,0,0,0-.37-2.23c-.76-1-2.14-2.33-3.31-1.23A10,10,0,0,1,15,18.74c-.91.58-2.21-1-2.77-1.63a14.77,14.77,0,0,1-1.2-1.42.88.88,0,0,1-.15-1,2.29,2.29,0,0,1,.51-.41c.46-.33,1.14-.65,1.24-1.27.15-.85-.7-1.68-1.24-2.23a13.19,13.19,0,0,0-1.24-1.12C9.94,9.46,9.7,9.87,9.94,10.06Z"/><path d="M15.38,11.89a2.25,2.25,0,0,1,.4,0,3,3,0,0,1,.43.12,2.92,2.92,0,0,1,.37.17,2.4,2.4,0,0,1,.37.25l0,0,.09.08.16.15.15.17,0,0h0l.06.08a2.88,2.88,0,0,1,.22.38,1.22,1.22,0,0,1,.08.17,2.17,2.17,0,0,1,.07.24.4.4,0,0,0,.48.27.4.4,0,0,0,.28-.48,3.48,3.48,0,0,0-3.24-2.5.4.4,0,0,0-.39.39.39.39,0,0,0,.39.39Z"/><path d="M15.19,9.84a4.11,4.11,0,0,1,3.2.91,4.06,4.06,0,0,1,1.4,2.85c0,.5.82.5.79,0a4.93,4.93,0,0,0-1.64-3.41,4.86,4.86,0,0,0-3.75-1.14.4.4,0,0,0,0,.79Z"/><path d="M14.65,7.34a6.38,6.38,0,0,1,7.1,6.53.39.39,0,0,0,.78,0,7.16,7.16,0,0,0-7.88-7.31c-.5.05-.5.83,0,.78Z"/></svg>